<svg xmlns="http://www.w3.org/2000/svg" viewBox="0 0 32 32" enable-background="new 0 0 32 32" preserveAspectRatio="none"><style type="text/css"><![CDATA[
	.st0{fill:#184B98;}
	.st1{fill:#808184;}
	.st2{fill:#28A8E0;}
	.st3{fill:url(#SVGID_1_);}
	.st4{fill:url(#SVGID_2_);}
	.st5{fill:url(#SVGID_3_);}
	.st6{fill:url(#SVGID_4_);}
	.st7{fill:url(#SVGID_5_);}
	.st8{fill:url(#SVGID_6_);}
	.st9{fill:url(#SVGID_7_);}
	.st10{fill:url(#SVGID_8_);}
	.st11{fill:url(#SVGID_9_);}
	.st12{fill:#FFFFFF;}
	.st13{fill:none;}
	.st14{fill:url(#SVGID_10_);}
	.st15{fill:url(#SVGID_11_);}
	.st16{fill:url(#SVGID_12_);}
	.st17{fill:url(#SVGID_13_);}
	.st18{fill:url(#SVGID_14_);}
	.st19{fill:url(#SVGID_15_);}
	.st20{fill:url(#SVGID_16_);}
	.st21{fill:url(#SVGID_17_);}
	.st22{fill:url(#SVGID_18_);}
	.st23{fill:url(#SVGID_19_);}
	.st24{fill:url(#SVGID_20_);}
	.st25{fill:url(#SVGID_21_);}
	.st26{fill:url(#SVGID_22_);}
	.st27{fill:url(#SVGID_23_);}
	.st28{fill:url(#SVGID_24_);}
	.st29{fill:url(#SVGID_25_);}
	.st30{fill:url(#SVGID_26_);}
	.st31{fill:url(#SVGID_27_);}
	.st32{fill:url(#SVGID_28_);}
	.st33{fill:url(#SVGID_29_);}
	.st34{fill:url(#SVGID_30_);}
	.st35{fill:url(#SVGID_31_);}
	.st36{fill:url(#SVGID_32_);}
	.st37{fill:url(#SVGID_33_);}
	.st38{fill:url(#SVGID_34_);}
	.st39{fill:url(#SVGID_35_);}
	.st40{fill:url(#SVGID_36_);}
	.st41{fill:url(#SVGID_37_);}
	.st42{fill:url(#SVGID_38_);}
	.st43{fill:url(#SVGID_39_);}
	.st44{fill:url(#SVGID_40_);}
	.st45{fill:url(#SVGID_41_);}
	.st46{fill:url(#SVGID_42_);}
	.st47{fill:url(#SVGID_43_);}
	.st48{fill:url(#SVGID_44_);}
	.st49{fill:url(#SVGID_45_);}
	.st50{fill:url(#SVGID_46_);}
	.st51{fill:url(#SVGID_47_);}
	.st52{fill:url(#SVGID_48_);}
	.st53{fill:url(#SVGID_49_);}
	.st54{fill:url(#SVGID_50_);}
	.st55{fill:url(#SVGID_51_);}
	.st56{fill:url(#SVGID_52_);}
	.st57{fill:url(#SVGID_53_);}
	.st58{fill:url(#SVGID_54_);}
	.st59{fill:url(#SVGID_55_);}
	.st60{fill:url(#SVGID_56_);}
	.st61{fill:url(#SVGID_57_);}
	.st62{fill:url(#SVGID_58_);}
	.st63{fill:url(#SVGID_59_);}
	.st64{fill:url(#SVGID_60_);}
	.st65{fill:url(#SVGID_61_);}
	.st66{fill:url(#SVGID_62_);}
	.st67{fill:url(#SVGID_63_);}
]]></style><linearGradient id="SVGID_1_" gradientUnits="userSpaceOnUse" x1="715.533" y1="-53.09" x2="720.636" y2="-47.845" gradientTransform="matrix(.95 -.311 .311 .95 -659.627 298.333)"><stop offset=".073" stop-color="#808184"/><stop offset=".558" stop-color="#D1D2D3"/><stop offset="1" stop-color="#808184"/></linearGradient><path class="st3" d="M6.73 30.61c-.56.82-1.79 1.09-2.73.6-.95-.49-1.26-1.55-.7-2.37l4.1-5.97c.56-.82 1.79-1.09 2.73-.6.95.49 1.26 1.55.7 2.37l-4.1 5.97z"/><linearGradient id="SVGID_2_" gradientUnits="userSpaceOnUse" x1="625.702" y1="-73.214" x2="616.633" y2="-88.462" gradientTransform="matrix(.959 -.283 .283 .959 -564.857 273.079)"><stop offset=".442" stop-color="#E7E7E7"/><stop offset="1" stop-color="#808184"/></linearGradient><path class="st4" d="M18.08 21.17l-2.41 3.94-.04.01-4.49.98-.05.01-1.36 1.21c-.76-.14-1.65-.38-2.36-.77-1.37-.75-2.21-2.2-2.47-3.12l-.55-3.65-.16-.79c-.2-1.02-.55-2.8-.78-4.06l2.54-3.89v.03l12.11 10.1h.02z"/><linearGradient id="SVGID_3_" gradientUnits="userSpaceOnUse" x1="622.371" y1="-72.913" x2="628.24" y2="-72.913" gradientTransform="matrix(.959 -.283 .283 .959 -564.857 273.079)"><stop offset=".073" stop-color="#808184"/><stop offset="1" stop-color="#808184"/></linearGradient><path class="st5" d="M17.16 25.79l-.5.1c-.6.11-1.49.27-2.29.39-.82.13-1.54.21-1.78.17l-.01.02-1.45-.36 4.49-.98 1.54.66z"/><linearGradient id="SVGID_4_" gradientUnits="userSpaceOnUse" x1="621.237" y1="-72.057" x2="623.417" y2="-73.941" gradientTransform="matrix(.959 -.283 .283 .959 -564.857 273.079)"><stop offset=".018" stop-color="#D1D2D3"/><stop offset=".927" stop-color="#808184"/></linearGradient><path class="st6" d="M12.58 26.46c-.29.48-1.02.97-1.2 1.02-.1.03-.8 0-1.66-.16l1.36-1.21.05-.01 1.45.36z"/><linearGradient id="SVGID_5_" gradientUnits="userSpaceOnUse" x1="616.18" y1="-75.145" x2="625.426" y2="-75.145" gradientTransform="matrix(.959 -.283 .283 .959 -564.857 273.079)"><stop offset="0" stop-color="#D1D2D3"/><stop offset=".927" stop-color="#808184"/></linearGradient><path class="st7" d="M14.37 26.27c-.07.22-.17.49-.41.7-1.32 1.17-2.37 1.63-4.97 1.44l-.24-.02c-1.49-.18-2.53-.96-3.24-1.73-.46-.49-.78-.99-1-1.32-.51-.76-.01-2.15.25-2.89l.15.98c.26.92 1.1 2.38 2.45 3.12 1.53.84 3.85.97 4.03.93.18-.05.92-.54 1.21-1.03.23.04.95-.05 1.77-.18z"/><linearGradient id="SVGID_6_" gradientUnits="userSpaceOnUse" x1="620.569" y1="-85.574" x2="644.963" y2="-85.574" gradientTransform="matrix(.959 -.283 .283 .959 -564.857 273.079)"><stop offset="0" stop-color="#E7E7E7"/><stop offset=".558" stop-color="#F2F2F2"/><stop offset="1" stop-color="#BBBDBF"/></linearGradient><path class="st8" d="M32 17.03c0 .16-.09.34-.22.51v.01c-.24.33-.61.63-.61.63l-5.98 4.79s-.58.32-1.3.18c-.64-.12-1.26-.7-1.26-.7l-18.69-15.9s-.85-.82-.82-1.32c0-.09.04-.19.08-.28v-.01c.2-.4.68-.76.68-.76l6.7-3.71s.56-.39.87-.47c.54-.14 1.45.71 1.45.71l18.06 15.08c0 .02 1.03.85 1.04 1.24z"/><linearGradient id="SVGID_7_" gradientUnits="userSpaceOnUse" x1="620.359" y1="-84.159" x2="644.564" y2="-84.159" gradientTransform="matrix(.959 -.283 .283 .959 -564.857 273.079)"><stop offset=".073" stop-color="#808184"/><stop offset=".558" stop-color="#D1D2D3"/><stop offset="1" stop-color="#808184"/></linearGradient><path class="st9" d="M31.76 17.58l-.14.23-.01.02c-.24.32-.58.59-.58.59l-5.98 4.79s-.58.31-1.3.18c-.64-.12-1.26-.7-1.26-.7l-1.81-1.54-14.69-12.5-2.2-1.87s-.73-.7-.82-1.2l.14-.35c-.03.5.82 1.32.82 1.32l2.19 1.86 14.71 12.52 1.8 1.53s.62.58 1.26.7c.72.13 1.3-.18 1.3-.18l5.98-4.79c0-.01.34-.29.59-.61z"/><path class="st13" d="M3.2 4.95c-.04.1-.08.19-.08.28l-.14.35-.01-.11c.01-.18.11-.36.23-.52z"/><linearGradient id="SVGID_8_" gradientUnits="userSpaceOnUse" x1="621.782" y1="-85.694" x2="643.784" y2="-85.694" gradientTransform="matrix(.959 -.283 .283 .959 -564.857 273.079)"><stop offset="0" stop-color="#231F20"/><stop offset=".509" stop-color="#6E6F71"/><stop offset=".927" stop-color="#231F20"/></linearGradient><path class="st10" d="M23.93 21.87c-.62.14-1.23-.33-1.66-.72-.43-.38-17.27-14.49-17.27-14.49s-.42-.43-.44-.77c-.02-.34.07-.6.54-.96.48-.36 6.03-3.43 6.03-3.43s.5-.35.86-.39c.36-.05.73.09 1.01.26s16.22 13.41 16.99 14.14.75 1.19.24 1.64c-.52.46-5.55 4.29-5.55 4.29s-.45.36-.75.43z"/><linearGradient id="SVGID_9_" gradientUnits="userSpaceOnUse" x1="627.927" y1="-87.857" x2="640.9" y2="-87.857" gradientTransform="matrix(.959 -.283 .283 .959 -564.857 273.079)"><stop offset=".073" stop-color="#808184"/><stop offset=".558" stop-color="#D1D2D3"/><stop offset="1" stop-color="#808184"/></linearGradient><path class="st11" d="M25.58 10.62c-1.43-1.47-5.06-4.23-5.06-4.23s-1.47-1.37-3.06-2.51c-1.58-1.15-3.11-.49-3.44-.25-.14.11-.61.67-1.1 1.27-.63.78-1.31 1.66-1.43 1.8-.21.25-.46 1.16 1.85 2.91 2.31 1.74 3.88 3.09 5.28 4.25 1.41 1.16 1.87 1.53 3.35 1.05 1.48-.47 3.58-1.72 3.58-1.72l.05-.04c.23-.2 1.26-1.21-.02-2.53zm-.49 2.29l-.52.33c-.54.33-1.44.82-2.31 1.1-1.38.45-2.08.19-3.39-.89s-2.91-2.5-5.06-4.13c-2.16-1.63-1.83-2.45-1.63-2.69.11-.13.64-.82 1.16-1.46.42-.56.85-1.07.99-1.17.3-.23 1.73-.84 3.21.23s2.85 2.34 2.85 2.34 3.38 2.57 4.72 3.95c1.34 1.37-.02 2.39-.02 2.39z"/><path class="st0" d="M25.09 12.91l-.52.33c.08-.4 0-.91-.56-1.48-1.34-1.37-4.72-3.95-4.72-3.95s-1.37-1.27-2.85-2.34c-1.35-.97-2.66-.55-3.11-.3.43-.56.86-1.07 1-1.17.3-.23 1.73-.84 3.21.23s2.85 2.34 2.85 2.34 3.38 2.57 4.72 3.95c1.34 1.37-.02 2.39-.02 2.39z"/><path class="st2" d="M24.56 13.24c-.54.33-1.44.82-2.31 1.1-1.38.45-2.08.19-3.39-.89s-2.91-2.5-5.06-4.13c-2.16-1.63-1.83-2.45-1.63-2.69.11-.13.64-.82 1.16-1.46.45-.26 1.75-.68 3.11.3 1.48 1.07 2.85 2.34 2.85 2.34s3.38 2.57 4.72 3.95c.55.57.64 1.08.55 1.48z"/><linearGradient id="SVGID_10_" gradientUnits="userSpaceOnUse" x1="926.741" y1="34.755" x2="928.334" y2="34.755" gradientTransform="matrix(.905 -.271 .436 .975 -839.676 225.152)"><stop offset=".073" stop-color="#808184"/><stop offset=".558" stop-color="#D1D2D3"/><stop offset="1" stop-color="#808184"/></linearGradient><path class="st14" d="M14.65 8.69c-.11.13-.34.14-.52.02-.17-.12-.22-.33-.11-.46l.58-.67c.11-.13.35-.14.52-.02.17.12.22.33.1.46l-.57.67z"/><radialGradient id="SVGID_11_" cx="1038.645" cy="1166.586" r=".224" gradientTransform="matrix(1.429 -.364 .652 1.327 -2230.097 -1161.528)" gradientUnits="userSpaceOnUse"><stop offset=".473" stop-color="#D1D2D3"/><stop offset="1" stop-color="#808184"/></radialGradient><path class="st15" d="M15.25 7.72c-.08-.16-.29-.26-.46-.22-.18.04-.25.21-.17.38.08.16.29.26.46.21.18-.03.26-.2.17-.37z"/><linearGradient id="SVGID_12_" gradientUnits="userSpaceOnUse" x1="927.883" y1="36.651" x2="929.477" y2="36.651" gradientTransform="matrix(.905 -.271 .436 .975 -839.676 225.152)"><stop offset=".073" stop-color="#808184"/><stop offset=".558" stop-color="#D1D2D3"/><stop offset="1" stop-color="#808184"/></linearGradient><path class="st16" d="M16.51 10.23c-.12.13-.35.14-.52.02-.17-.12-.22-.33-.1-.46l.58-.67c.11-.13.34-.14.52-.02.17.12.22.33.1.46l-.58.67z"/><radialGradient id="SVGID_13_" cx="1039.331" cy="1167.936" r=".224" gradientTransform="matrix(1.429 -.364 .652 1.327 -2230.097 -1161.528)" gradientUnits="userSpaceOnUse"><stop offset=".473" stop-color="#D1D2D3"/><stop offset="1" stop-color="#808184"/></radialGradient><path class="st17" d="M17.12 9.27c-.08-.16-.29-.26-.47-.22-.18.05-.25.21-.17.38.08.16.29.26.46.21s.26-.21.18-.37z"/><linearGradient id="SVGID_14_" gradientUnits="userSpaceOnUse" x1="929.145" y1="38.691" x2="930.739" y2="38.691" gradientTransform="matrix(.905 -.271 .436 .975 -839.676 225.152)"><stop offset=".073" stop-color="#808184"/><stop offset=".558" stop-color="#D1D2D3"/><stop offset="1" stop-color="#808184"/></linearGradient><path class="st18" d="M18.54 11.88c-.11.13-.34.14-.52.02-.17-.12-.22-.33-.11-.46l.58-.67c.11-.13.34-.14.52-.02.17.12.22.33.1.46l-.57.67z"/><radialGradient id="SVGID_15_" cx="1040.092" cy="1169.386" r=".224" gradientTransform="matrix(1.429 -.364 .652 1.327 -2230.097 -1161.528)" gradientUnits="userSpaceOnUse"><stop offset=".473" stop-color="#D1D2D3"/><stop offset="1" stop-color="#808184"/></radialGradient><path class="st19" d="M19.15 10.91c-.08-.16-.29-.26-.46-.22-.18.05-.25.21-.17.38.08.17.29.26.46.21.17-.04.25-.2.17-.37z"/><linearGradient id="SVGID_16_" gradientUnits="userSpaceOnUse" x1="930.34" y1="40.648" x2="931.935" y2="40.648" gradientTransform="matrix(.905 -.271 .436 .975 -839.676 225.152)"><stop offset=".073" stop-color="#808184"/><stop offset=".558" stop-color="#D1D2D3"/><stop offset="1" stop-color="#808184"/></linearGradient><path class="st20" d="M20.48 13.46c-.11.13-.34.14-.52.02-.17-.12-.22-.33-.1-.46l.58-.67c.11-.13.35-.14.52-.02.17.13.22.33.11.46l-.59.67z"/><radialGradient id="SVGID_17_" cx="1040.811" cy="1170.777" r=".224" gradientTransform="matrix(1.429 -.364 .652 1.327 -2230.097 -1161.528)" gradientUnits="userSpaceOnUse"><stop offset=".473" stop-color="#D1D2D3"/><stop offset="1" stop-color="#808184"/></radialGradient><path class="st21" d="M21.08 12.5c-.08-.16-.29-.26-.47-.22-.18.04-.25.21-.17.38.08.16.29.26.46.21.18-.04.26-.21.18-.37z"/><linearGradient id="SVGID_18_" gradientUnits="userSpaceOnUse" x1="933.215" y1="40.754" x2="934.809" y2="40.754" gradientTransform="matrix(.905 -.271 .436 .975 -839.676 225.152)"><stop offset=".073" stop-color="#808184"/><stop offset=".558" stop-color="#D1D2D3"/><stop offset="1" stop-color="#808184"/></linearGradient><path class="st22" d="M23.12 12.79c-.12.13-.35.14-.52.02-.17-.12-.22-.33-.1-.46l.58-.67c.11-.13.35-.14.52-.02.17.12.22.33.11.46l-.59.67z"/><radialGradient id="SVGID_19_" cx="1042.66" cy="1170.778" r=".224" gradientTransform="matrix(1.429 -.364 .652 1.327 -2230.097 -1161.528)" gradientUnits="userSpaceOnUse"><stop offset=".473" stop-color="#D1D2D3"/><stop offset="1" stop-color="#808184"/></radialGradient><path class="st23" d="M23.73 11.82c-.08-.16-.29-.26-.46-.21-.18.04-.25.21-.17.38.08.16.29.26.46.21.17-.05.25-.21.17-.38z"/><linearGradient id="SVGID_20_" gradientUnits="userSpaceOnUse" x1="932.015" y1="38.745" x2="933.607" y2="38.745" gradientTransform="matrix(.905 -.271 .436 .975 -839.676 225.152)"><stop offset=".073" stop-color="#808184"/><stop offset=".558" stop-color="#D1D2D3"/><stop offset="1" stop-color="#808184"/></linearGradient><path class="st24" d="M21.16 11.16c-.11.13-.34.14-.52.02-.17-.12-.22-.33-.1-.46l.58-.67c.11-.13.34-.14.52-.02.17.12.22.33.11.46l-.59.67z"/><radialGradient id="SVGID_21_" cx="1041.94" cy="1169.349" r=".224" gradientTransform="matrix(1.429 -.364 .652 1.327 -2230.097 -1161.528)" gradientUnits="userSpaceOnUse"><stop offset=".473" stop-color="#D1D2D3"/><stop offset="1" stop-color="#808184"/></radialGradient><path class="st25" d="M21.77 10.19c-.08-.16-.29-.26-.46-.22-.18.05-.25.21-.17.38.08.16.29.26.47.22s.24-.22.16-.38z"/><linearGradient id="SVGID_22_" gradientUnits="userSpaceOnUse" x1="930.721" y1="36.612" x2="932.313" y2="36.612" gradientTransform="matrix(.905 -.271 .436 .975 -839.676 225.152)"><stop offset=".073" stop-color="#808184"/><stop offset=".558" stop-color="#D1D2D3"/><stop offset="1" stop-color="#808184"/></linearGradient><path class="st26" d="M19.06 9.43c-.11.13-.35.14-.52.02-.17-.12-.22-.33-.1-.46l.58-.67c.11-.13.34-.14.52-.02.17.12.22.33.1.46l-.58.67z"/><radialGradient id="SVGID_23_" cx="1041.162" cy="1167.832" r=".223" gradientTransform="matrix(1.429 -.364 .652 1.327 -2230.097 -1161.528)" gradientUnits="userSpaceOnUse"><stop offset=".473" stop-color="#D1D2D3"/><stop offset="1" stop-color="#808184"/></radialGradient><path class="st27" d="M19.67 8.46c-.09-.16-.29-.26-.47-.22-.18.04-.25.21-.17.38.08.16.29.26.46.21.18-.04.26-.21.18-.37z"/><linearGradient id="SVGID_24_" gradientUnits="userSpaceOnUse" x1="929.543" y1="34.6" x2="931.137" y2="34.6" gradientTransform="matrix(.905 -.271 .436 .975 -839.676 225.152)"><stop offset=".073" stop-color="#808184"/><stop offset=".558" stop-color="#D1D2D3"/><stop offset="1" stop-color="#808184"/></linearGradient><path class="st28" d="M17.12 7.78c-.12.14-.35.14-.52.02-.17-.12-.22-.33-.1-.46l.58-.67c.11-.13.35-.14.52-.02.17.12.22.33.1.46l-.58.67z"/><radialGradient id="SVGID_25_" cx="1040.457" cy="1166.398" r=".223" gradientTransform="matrix(1.429 -.364 .652 1.327 -2230.097 -1161.528)" gradientUnits="userSpaceOnUse"><stop offset=".473" stop-color="#D1D2D3"/><stop offset="1" stop-color="#808184"/></radialGradient><path class="st29" d="M17.72 6.81c-.08-.16-.29-.26-.46-.21-.18.05-.26.21-.18.38s.29.26.46.21c.19-.04.26-.21.18-.38z"/><linearGradient id="SVGID_26_" gradientUnits="userSpaceOnUse" x1="928.348" y1="32.592" x2="929.94" y2="32.592" gradientTransform="matrix(.905 -.271 .436 .975 -839.676 225.152)"><stop offset=".073" stop-color="#808184"/><stop offset=".558" stop-color="#D1D2D3"/><stop offset="1" stop-color="#808184"/></linearGradient><path class="st30" d="M15.16 6.15c-.11.13-.35.14-.52.02-.17-.12-.22-.33-.11-.46l.58-.67c.11-.13.35-.14.52-.02.17.12.22.33.1.46l-.57.67z"/><radialGradient id="SVGID_27_" cx="1039.738" cy="1164.971" r=".223" gradientTransform="matrix(1.429 -.364 .652 1.327 -2230.097 -1161.528)" gradientUnits="userSpaceOnUse"><stop offset=".473" stop-color="#D1D2D3"/><stop offset="1" stop-color="#808184"/></radialGradient><path class="st31" d="M15.76 5.18c-.08-.16-.29-.26-.46-.21-.18.04-.25.21-.17.38.08.16.29.26.46.21.18-.05.26-.21.17-.38z"/><linearGradient id="SVGID_28_" gradientUnits="userSpaceOnUse" x1="625.956" y1="-86.247" x2="639.963" y2="-86.247" gradientTransform="matrix(.959 -.283 .283 .959 -564.857 273.079)"><stop offset="0" stop-color="#808184"/><stop offset=".418" stop-color="#F2F2F2"/><stop offset="1" stop-color="#595A5C"/></linearGradient><path class="st32" d="M24.91 15.55c-.92.59-3.04 1.71-3.04 1.71s-1.86.77-3.6-.5-6.25-4.99-7.52-6.21c-1.28-1.22-1.03-2.46-.72-2.89.3-.43 2.19-2.53 2.39-2.61.1-.04.32-.1.51-.14-.63.78-1.31 1.66-1.43 1.8l-.05.08c-.3.35-.55.65-.63.78-.28.4-.5 1.57.69 2.73s5.38 4.55 6.99 5.75c1.62 1.21 3.33.49 3.33.49s1.96-.9 2.8-1.45c.63-.42.93-1.17.8-1.81l.14-.08.05-.04c.45.73.14 1.83-.71 2.39z"/><linearGradient id="SVGID_29_" gradientUnits="userSpaceOnUse" x1="630.535" y1="-87.851" x2="638.968" y2="-78.059" gradientTransform="matrix(.959 -.283 .283 .959 -564.857 273.079)"><stop offset=".073" stop-color="#808184"/><stop offset=".61" stop-color="#F2F2F2"/><stop offset="1" stop-color="#808184"/></linearGradient><path class="st33" d="M25.41 13.26c.14.64-.16 1.4-.8 1.81-.84.55-2.8 1.45-2.8 1.45s-1.71.71-3.33-.49c-1.61-1.2-5.8-4.59-6.99-5.75-1.19-1.16-.96-2.33-.69-2.73.09-.13.34-.43.63-.78-.18.33-.21 1.24 1.9 2.83 2.31 1.74 3.88 3.09 5.28 4.25 1.41 1.16 1.87 1.53 3.35 1.05 1.26-.39 2.96-1.35 3.45-1.64z"/><linearGradient id="SVGID_30_" gradientUnits="userSpaceOnUse" x1="625.497" y1="-94.731" x2="628.44" y2="-94.731" gradientTransform="matrix(.959 -.283 .283 .959 -564.857 273.079)"><stop offset=".073" stop-color="#808184"/><stop offset=".558" stop-color="#F2F2F2"/><stop offset="1" stop-color="#808184"/></linearGradient><path class="st34" d="M8.13 4.91c-.25-.75.17-1.53.96-1.73s1.63.25 1.89 1-.17 1.53-.96 1.73c-.78.21-1.63-.24-1.89-1z"/><linearGradient id="SVGID_31_" gradientUnits="userSpaceOnUse" x1="637.224" y1="-77.628" x2="640.168" y2="-77.628" gradientTransform="matrix(.959 -.283 .283 .959 -564.857 273.079)"><stop offset=".073" stop-color="#808184"/><stop offset=".558" stop-color="#F2F2F2"/><stop offset="1" stop-color="#808184"/></linearGradient><path class="st35" d="M24.23 17.99c-.26-.75.17-1.53.96-1.73.79-.2 1.64.25 1.89 1 .26.75-.17 1.53-.96 1.73-.79.21-1.64-.24-1.89-1z"/><radialGradient id="SVGID_32_" cx="924.664" cy="1122.359" r=".759" gradientTransform="matrix(1.505 -.385 .445 1.304 -1864.752 -1089.783)" gradientUnits="userSpaceOnUse"><stop offset=".442" stop-color="#D1D2D3"/><stop offset=".927" stop-color="#808184"/></radialGradient><path class="st36" d="M24.69 17.78c-.2-.57.13-1.16.73-1.32.6-.15 1.24.19 1.44.76.2.57-.13 1.16-.73 1.31-.6.16-1.24-.18-1.44-.75z"/><linearGradient id="SVGID_33_" gradientUnits="userSpaceOnUse" x1="620.877" y1="-90.015" x2="617.934" y2="-92.782" gradientTransform="matrix(.959 -.283 .283 .959 -564.857 273.079)"><stop offset=".073" stop-color="#808184"/><stop offset=".558" stop-color="#D1D2D3"/><stop offset="1" stop-color="#808184"/></linearGradient><path class="st37" d="M5.99 8.65l-2.78 5.03c-.59-.04-1.06-.19-1.44-.38-.36-.18-.62-.4-.83-.61-.7-.72-.15-1.72-.15-1.72l2.18-5.4c.09.5.82 1.2.82 1.2l2.2 1.88z"/><linearGradient id="SVGID_34_" gradientUnits="userSpaceOnUse" x1="638.291" y1="-71.22" x2="634.91" y2="-75.956" gradientTransform="matrix(.959 -.283 .283 .959 -564.857 273.079)"><stop offset=".073" stop-color="#808184"/><stop offset=".558" stop-color="#D1D2D3"/><stop offset="1" stop-color="#808184"/></linearGradient><path class="st38" d="M31.03 18.42l-5.98 4.79s-.58.31-1.3.18c-.64-.12-1.26-.7-1.26-.7l-1.81-1.54-3.46 4.63c.1-.02.25.07.41.22.6.57 2.13 1.96 3.05 1.93 1.16-.04 3.02-1.21 3.08-1.35l.15-.15c.7-.64 3.67-3.1 4.54-4.03.77-.83 2.44-3.44 3.15-4.56-.24.3-.57.58-.57.58z"/><linearGradient id="SVGID_35_" gradientUnits="userSpaceOnUse" x1="628.624" y1="-75.18" x2="632.98" y2="-72.326" gradientTransform="matrix(.959 -.283 .283 .959 -564.857 273.079)"><stop offset=".018" stop-color="#D1D2D3"/><stop offset=".927" stop-color="#808184"/></linearGradient><path class="st39" d="M20.64 21.2l-3.42 4.57-.06.01-1.53-.68.04-.01 2.41-3.94 2.56.05z"/><linearGradient id="SVGID_36_" gradientUnits="userSpaceOnUse" x1="619.699" y1="-90.716" x2="620.719" y2="-87.657" gradientTransform="matrix(.959 -.283 .283 .959 -564.857 273.079)"><stop offset="0" stop-color="#D1D2D3"/><stop offset="1" stop-color="#808184"/></linearGradient><path class="st40" d="M5.95 8.74l.01 2.3-2.54 3.89c-.1-.54-.17-.99-.2-1.24h-.01l2.74-4.95z"/><linearGradient id="SVGID_37_" gradientUnits="userSpaceOnUse" x1="615.836" y1="-81.233" x2="617.865" y2="-83.262" gradientTransform="matrix(.959 -.283 .283 .959 -564.857 273.079)"><stop offset="0" stop-color="#808184"/><stop offset="1" stop-color="#D1D2D3"/></linearGradient><path class="st41" d="M2.91 20.54l1.23-1.85-.12-.6-1.59 2.4c.16.03.32.05.48.05z"/><path class="st1" d="M1.77 13.31c-1.52 4.27-1.77 5.23-1.77 5.23s.08.18.24.43l2.05-5.46c-.19-.06-.36-.13-.52-.2z"/><linearGradient id="SVGID_38_" gradientUnits="userSpaceOnUse" x1="613.665" y1="-83.496" x2="618.074" y2="-87.905" gradientTransform="matrix(.959 -.283 .283 .959 -564.857 273.079)"><stop offset="0" stop-color="#808184"/><stop offset="1" stop-color="#D1D2D3"/></linearGradient><path class="st42" d="M2.29 13.51l-2.05 5.46c.08.13.19.28.31.43l2.51-5.73c-.29-.03-.54-.09-.77-.16z"/><path class="st1" d="M3.53 20.53l.76-1.07-.15-.77-1.23 1.85c.22.01.43.01.62-.01z"/><linearGradient id="SVGID_39_" gradientUnits="userSpaceOnUse" x1="616.808" y1="-80.96" x2="617.727" y2="-81.88" gradientTransform="matrix(.959 -.283 .283 .959 -564.857 273.079)"><stop offset="0" stop-color="#808184"/><stop offset="1" stop-color="#D1D2D3"/></linearGradient><path class="st43" d="M4.06 20.46c.1-.42.29-.69.29-.69l-.06-.31-.76 1.07c.2-.02.38-.04.53-.07z"/><linearGradient id="SVGID_40_" gradientUnits="userSpaceOnUse" x1="615.057" y1="-81.761" x2="618.271" y2="-84.975" gradientTransform="matrix(.959 -.283 .283 .959 -564.857 273.079)"><stop offset="0" stop-color="#808184"/><stop offset="1" stop-color="#D1D2D3"/></linearGradient><path class="st44" d="M3.65 16.19l-1.95 4.11.01.01.35.11 1.81-3.06-.22-1.17z"/><path class="st1" d="M2.06 20.42l.37.08 1.59-2.4-.14-.73-1.82 3.05zM3.22 13.68l-.16-.02-2.51 5.74c.11.14.25.29.39.42l2.36-5.55-.08-.59zM3.48 15.3l-2.22 4.77c.14.09.28.17.44.23l1.95-4.11-.17-.89z"/><linearGradient id="SVGID_41_" gradientUnits="userSpaceOnUse" x1="614.269" y1="-82.544" x2="618.558" y2="-86.833" gradientTransform="matrix(.959 -.283 .283 .959 -564.857 273.079)"><stop offset="0" stop-color="#808184"/><stop offset="1" stop-color="#D1D2D3"/></linearGradient><path class="st45" d="M3.31 14.27l-2.36 5.55c.1.09.2.17.32.25l2.22-4.77c-.08-.38-.14-.74-.18-1.03z"/><linearGradient id="SVGID_42_" gradientUnits="userSpaceOnUse" x1="625.576" y1="-68.61" x2="629.774" y2="-68.61" gradientTransform="matrix(.959 -.283 .283 .959 -564.857 273.079)"><stop offset="0" stop-color="#808184"/><stop offset="1" stop-color="#D1D2D3"/></linearGradient><path class="st46" d="M18.78 27l-2.7 4.55c.15.09.31.17.49.23l2.63-4.47-.42-.31z"/><linearGradient id="SVGID_43_" gradientUnits="userSpaceOnUse" x1="625.162" y1="-69.447" x2="629.159" y2="-69.447" gradientTransform="matrix(.959 -.283 .283 .959 -564.857 273.079)"><stop offset="0" stop-color="#808184"/><stop offset="1" stop-color="#D1D2D3"/></linearGradient><path class="st47" d="M17.9 26.26l-2.41 4.73c.08.1.16.2.26.29l2.64-4.6-.49-.42z"/><path class="st1" d="M17.62 25.99l-2.41 4.57c.07.14.17.29.27.43l2.41-4.73-.27-.27zM16.66 25.88c-.57 1.27-1.64 3.67-1.69 3.84-.02.07.01.25.09.48l2.16-4.42-.56.1z"/><linearGradient id="SVGID_44_" gradientUnits="userSpaceOnUse" x1="624.974" y1="-70.192" x2="628.624" y2="-70.192" gradientTransform="matrix(.959 -.283 .283 .959 -564.857 273.079)"><stop offset="0" stop-color="#808184"/><stop offset="1" stop-color="#D1D2D3"/></linearGradient><path class="st48" d="M17.22 25.78l-2.16 4.42c.04.11.09.23.16.36l2.41-4.57c-.16-.15-.31-.23-.41-.21z"/><path class="st1" d="M18.38 26.68l-2.64 4.6c.1.1.22.19.34.27l2.7-4.55-.4-.32z"/><linearGradient id="SVGID_45_" gradientUnits="userSpaceOnUse" x1="627.385" y1="-67.495" x2="631.767" y2="-67.495" gradientTransform="matrix(.959 -.283 .283 .959 -564.857 273.079)"><stop offset="0" stop-color="#808184"/><stop offset="1" stop-color="#D1D2D3"/></linearGradient><path class="st49" d="M20.8 27.91l-2.7 4.09.57-.02 2.75-4.2c-.21.06-.43.11-.62.13z"/><path class="st1" d="M21.43 27.78l-2.75 4.2c.2-.02.37-.05.52-.09l3-4.4c-.26.11-.52.21-.77.29z"/><linearGradient id="SVGID_46_" gradientUnits="userSpaceOnUse" x1="628.456" y1="-67.721" x2="634.477" y2="-67.721" gradientTransform="matrix(.959 -.283 .283 .959 -564.857 273.079)"><stop offset="0" stop-color="#808184"/><stop offset="1" stop-color="#D1D2D3"/></linearGradient><path class="st50" d="M23.52 26.76c-.28.19-.78.48-1.33.73l-3 4.4c.33-.08.5-.17.5-.17s3.62-4.68 4.17-5.27c-.06.07-.2.22-.34.31z"/><path class="st1" d="M19.21 27.31l-2.63 4.47.14.04.38.08 2.64-4.27c-.18-.09-.35-.2-.53-.32zM20.67 27.92c-.1 0-.21-.01-.32-.04l-2.67 4.1.42.02 2.69-4.09-.12.01z"/><linearGradient id="SVGID_47_" gradientUnits="userSpaceOnUse" x1="626.442" y1="-67.916" x2="630.71" y2="-67.916" gradientTransform="matrix(.959 -.283 .283 .959 -564.857 273.079)"><stop offset="0" stop-color="#808184"/><stop offset="1" stop-color="#D1D2D3"/></linearGradient><path class="st51" d="M19.74 27.63l-2.64 4.27c.21.04.4.06.59.08l2.67-4.1c-.2-.05-.41-.13-.62-.25z"/><linearGradient id="SVGID_48_" gradientUnits="userSpaceOnUse" x1="621.665" y1="-83.713" x2="632.927" y2="-83.713" gradientTransform="matrix(.959 -.283 .283 .959 -564.857 273.079)"><stop offset=".073" stop-color="#808184"/><stop offset=".558" stop-color="#D1D2D3"/><stop offset="1" stop-color="#808184"/></linearGradient><path class="st52" d="M20.68 21.15l-.04.05-2.56-.03h-.02l-12.1-10.1-.01-2.33.04-.09 12.98 11.05z"/><path class="st12" d="M15.13 22.98l-2.22-.82-6.65-5.48-.98-1.9.85-1.5.58.33-.67 1.19.78 1.52 6.47 5.29 1.58.56.81-1.18.55.38zM8.97 25.96l-3.7-3.09-.81-4.12.66-.13.76 3.89 3.25 2.72 4.23-1.13.17.65z"/><path class="st1" d="M15.14 22.83l-2.23-.81-6.58-5.51-.86-1.77.85-1.49.58.32-.67 1.19.67 1.4 6.39 5.31 1.59.56.8-1.18.55.37zM8.97 25.82l-3.58-3.13-.8-4.12.65-.13.76 3.9 3.14 2.74 4.22-1.12.17.64z"/><radialGradient id="SVGID_49_" cx="848.331" cy="911.932" r=".795" gradientTransform="matrix(1.167 -.28 .355 1.093 -1287.726 -741.737)" gradientUnits="userSpaceOnUse"><stop offset=".442" stop-color="#D1D2D3"/><stop offset=".927" stop-color="#808184"/></radialGradient><path class="st53" d="M24.99 17.51c-.16-.5.08-1.02.55-1.16.49-.14 1.02.17 1.17.7.15.52-.12 1.03-.6 1.14-.46.12-.96-.19-1.12-.68z"/><radialGradient id="SVGID_50_" cx="848.576" cy="911.691" r=".807" gradientTransform="matrix(1.167 -.28 .355 1.093 -1287.726 -741.737)" gradientUnits="userSpaceOnUse"><stop offset=".442" stop-color="#D1D2D3"/><stop offset=".927" stop-color="#808184"/></radialGradient><path class="st54" d="M25.17 17.19c-.16-.51.09-1.04.57-1.18.49-.15 1.03.17 1.19.7.15.53-.13 1.05-.62 1.17-.47.12-.98-.19-1.14-.69z"/><radialGradient id="SVGID_51_" cx="848.875" cy="911.421" r=".826" gradientTransform="matrix(1.167 -.28 .355 1.093 -1287.726 -741.737)" gradientUnits="userSpaceOnUse"><stop offset=".442" stop-color="#D1D2D3"/><stop offset=".927" stop-color="#808184"/></radialGradient><path class="st55" d="M25.41 16.83c-.16-.52.09-1.06.58-1.22.51-.15 1.05.16 1.21.71.15.54-.14 1.07-.63 1.2-.49.13-1-.18-1.16-.69z"/><radialGradient id="SVGID_52_" cx="849.133" cy="911.168" r=".84" gradientTransform="matrix(1.167 -.28 .355 1.093 -1287.726 -741.737)" gradientUnits="userSpaceOnUse"><stop offset=".442" stop-color="#D1D2D3"/><stop offset=".927" stop-color="#808184"/></radialGradient><path class="st56" d="M25.61 16.49c-.16-.53.1-1.08.6-1.24.51-.16 1.07.16 1.22.71.15.55-.14 1.09-.65 1.23-.49.13-1.01-.18-1.17-.7z"/><radialGradient id="SVGID_53_" cx="849.354" cy="910.953" r=".853" gradientTransform="matrix(1.167 -.28 .355 1.093 -1287.726 -741.737)" gradientUnits="userSpaceOnUse"><stop offset=".442" stop-color="#D1D2D3"/><stop offset=".927" stop-color="#808184"/></radialGradient><path class="st57" d="M25.77 16.2c-.16-.54.1-1.1.61-1.27.52-.17 1.08.15 1.24.72.16.55-.15 1.11-.66 1.25-.5.14-1.03-.17-1.19-.7z"/><radialGradient id="SVGID_54_" cx="849.617" cy="910.705" r=".868" gradientTransform="matrix(1.167 -.28 .355 1.093 -1287.726 -741.737)" gradientUnits="userSpaceOnUse"><stop offset=".442" stop-color="#D1D2D3"/><stop offset=".927" stop-color="#808184"/></radialGradient><path class="st58" d="M25.98 15.87c-.16-.54.11-1.13.63-1.29.53-.18 1.1.15 1.26.72.15.56-.16 1.14-.68 1.28-.52.14-1.05-.17-1.21-.71z"/><linearGradient id="SVGID_55_" gradientUnits="userSpaceOnUse" x1="1520.215" y1="911.088" x2="1520.963" y2="911.088" gradientTransform="matrix(1.406 -1.207 1.261 1.254 -3259.164 708.204)"><stop offset="0" stop-color="#D1D2D3"/><stop offset=".424" stop-color="#AFB1B2"/><stop offset="1" stop-color="#808184"/></linearGradient><path class="st59" d="M26.57 15.85c-.28-.29-.29-.74-.03-1.01.28-.28.73-.26 1.02.05.28.3.27.76-.01 1.02-.28.25-.71.22-.98-.06z"/><radialGradient id="SVGID_56_" cx="917.487" cy="1110.24" r=".759" gradientTransform="matrix(1.505 -.385 .445 1.304 -1864.752 -1089.783)" gradientUnits="userSpaceOnUse"><stop offset=".442" stop-color="#D1D2D3"/><stop offset=".927" stop-color="#808184"/></radialGradient><path class="st60" d="M8.5 4.74c-.2-.58.13-1.16.73-1.32.6-.15 1.24.19 1.44.76.2.57-.13 1.16-.73 1.32-.6.16-1.24-.19-1.44-.76z"/><radialGradient id="SVGID_57_" cx="838.828" cy="897.563" r=".795" gradientTransform="matrix(1.167 -.28 .355 1.093 -1287.726 -741.737)" gradientUnits="userSpaceOnUse"><stop offset=".442" stop-color="#D1D2D3"/><stop offset=".927" stop-color="#808184"/></radialGradient><path class="st61" d="M8.8 4.47c-.16-.5.08-1.02.55-1.16.49-.14 1.02.17 1.17.7.15.52-.12 1.03-.6 1.14-.46.12-.96-.19-1.12-.68z"/><radialGradient id="SVGID_58_" cx="839.072" cy="897.324" r=".808" gradientTransform="matrix(1.167 -.28 .355 1.093 -1287.726 -741.737)" gradientUnits="userSpaceOnUse"><stop offset=".442" stop-color="#D1D2D3"/><stop offset=".927" stop-color="#808184"/></radialGradient><path class="st62" d="M8.99 4.15c-.17-.51.08-1.04.56-1.18.49-.15 1.03.17 1.19.7.15.53-.13 1.05-.62 1.17-.47.12-.97-.19-1.13-.69z"/><radialGradient id="SVGID_59_" cx="839.371" cy="897.053" r=".827" gradientTransform="matrix(1.167 -.28 .355 1.093 -1287.726 -741.737)" gradientUnits="userSpaceOnUse"><stop offset=".442" stop-color="#D1D2D3"/><stop offset=".927" stop-color="#808184"/></radialGradient><path class="st63" d="M9.22 3.79c-.16-.52.09-1.07.58-1.22.5-.15 1.05.16 1.21.71.15.54-.14 1.07-.63 1.2-.49.13-1-.18-1.16-.69z"/><radialGradient id="SVGID_60_" cx="839.631" cy="896.8" r=".84" gradientTransform="matrix(1.167 -.28 .355 1.093 -1287.726 -741.737)" gradientUnits="userSpaceOnUse"><stop offset=".442" stop-color="#D1D2D3"/><stop offset=".927" stop-color="#808184"/></radialGradient><path class="st64" d="M9.42 3.45c-.16-.53.1-1.08.6-1.24.51-.16 1.07.16 1.22.71.15.55-.14 1.09-.65 1.23-.49.13-1.01-.18-1.17-.7z"/><radialGradient id="SVGID_61_" cx="839.852" cy="896.586" r=".853" gradientTransform="matrix(1.167 -.28 .355 1.093 -1287.726 -741.737)" gradientUnits="userSpaceOnUse"><stop offset=".442" stop-color="#D1D2D3"/><stop offset=".927" stop-color="#808184"/></radialGradient><path class="st65" d="M9.58 3.17c-.16-.54.1-1.1.61-1.27.52-.17 1.08.15 1.24.72.15.55-.15 1.11-.66 1.25-.5.14-1.02-.18-1.19-.7z"/><radialGradient id="SVGID_62_" cx="840.115" cy="896.338" r=".868" gradientTransform="matrix(1.167 -.28 .355 1.093 -1287.726 -741.737)" gradientUnits="userSpaceOnUse"><stop offset=".442" stop-color="#D1D2D3"/><stop offset=".927" stop-color="#808184"/></radialGradient><path class="st66" d="M9.79 2.83c-.16-.54.11-1.12.62-1.29.53-.17 1.1.15 1.26.72.15.56-.16 1.14-.68 1.28-.51.14-1.04-.17-1.2-.71z"/><linearGradient id="SVGID_63_" gradientUnits="userSpaceOnUse" x1="1519.042" y1="899.559" x2="1519.79" y2="899.559" gradientTransform="matrix(1.406 -1.207 1.261 1.254 -3259.164 708.204)"><stop offset="0" stop-color="#D1D2D3"/><stop offset="1" stop-color="#808184"/></linearGradient><path class="st67" d="M10.38 2.81c-.28-.29-.29-.74-.03-1.01.28-.28.73-.26 1.02.05.28.3.27.76-.01 1.02-.27.25-.71.22-.98-.06z"/></svg>